<?xml version="1.0" standalone="no"?>
<!DOCTYPE svg PUBLIC "-//W3C//DTD SVG 20010904//EN"
 "http://www.w3.org/TR/2001/REC-SVG-20010904/DTD/svg10.dtd">
<svg version="1.0" xmlns="http://www.w3.org/2000/svg"
 width="387.000000pt" height="388.000000pt" viewBox="0 0 387.000000 388.000000"
 preserveAspectRatio="xMidYMid meet">

<g transform="translate(0.000000,388.000000) scale(0.100000,-0.100000)"
fill="#000000" stroke="none">
<path d="M0 1940 l0 -1940 1935 0 1935 0 0 1940 0 1940 -1935 0 -1935 0 0
-1940z m2639 1068 c-19 -24 -68 -86 -110 -139 -41 -53 -83 -106 -92 -119 -12
-18 -53 -34 -179 -72 -89 -27 -166 -52 -171 -57 -4 -4 -7 -28 -5 -53 l3 -45
155 49 c365 115 642 199 646 196 1 -2 -86 -108 -194 -235 -130 -153 -198 -226
-200 -214 -2 9 1 43 6 74 5 31 6 57 2 57 -14 0 -435 -132 -442 -139 -3 -3 -14
-78 -22 -166 -23 -224 -18 -211 -79 -231 -28 -9 -76 -28 -106 -41 -29 -13 -55
-23 -56 -21 -2 2 7 90 19 196 12 105 20 192 16 192 -3 0 -62 -18 -131 -39 -69
-22 -164 -51 -210 -65 l-86 -26 -37 -94 c-20 -51 -42 -100 -49 -109 -11 -14
-304 -103 -313 -95 -2 3 53 87 122 189 129 190 140 214 164 354 7 39 16 76 19
83 4 7 17 -18 29 -58 13 -38 26 -72 31 -74 6 -4 481 140 487 147 1 1 4 28 8
60 6 53 5 58 -11 53 -10 -3 -106 -30 -213 -61 -107 -30 -202 -58 -210 -61 -55
-20 55 37 415 211 226 110 502 245 615 301 113 56 207 100 209 98 2 -2 -12
-22 -30 -46z m-246 -725 c-3 -27 -8 -51 -12 -55 -8 -10 -241 -82 -246 -76 -2
2 -1 26 3 53 l7 50 110 36 c147 50 144 50 138 -8z m-44 -197 c-16 -30 -35 -58
-42 -63 -6 -5 -48 -20 -92 -33 -44 -12 -86 -25 -93 -28 -10 -3 -12 7 -6 49 4
30 8 55 9 56 4 6 221 71 237 72 13 1 11 -8 -13 -53z m-626 -13 c-3 -27 -8 -51
-12 -55 -3 -3 -53 -20 -110 -38 -57 -17 -111 -34 -119 -38 -12 -4 -14 3 -8 44
4 27 12 53 16 58 10 10 197 74 221 75 14 1 16 -7 12 -46z m981 -35 c-14 -24
-144 -203 -167 -230 -18 -22 -66 -40 -287 -108 -146 -45 -265 -82 -266 -83 -1
-1 -5 -26 -9 -56 -6 -44 -5 -53 6 -49 8 3 64 18 125 33 l111 29 109 -70 c60
-39 126 -81 147 -94 21 -12 35 -26 30 -30 -9 -8 -242 -80 -259 -80 -5 0 -68
46 -140 101 l-129 101 -7 -33 c-4 -19 -21 -168 -39 -332 -18 -163 -36 -296
-40 -295 -18 7 -179 204 -179 219 0 10 11 120 25 245 14 124 24 230 23 234 -2
3 -101 -25 -221 -63 l-218 -70 -75 74 c-41 40 -74 76 -74 80 0 3 42 18 92 34
90 26 1222 384 1363 430 84 28 88 29 79 13z m-996 -106 c-1 -4 -19 -33 -38
-65 -34 -56 -36 -58 -116 -82 -45 -14 -87 -25 -94 -25 -12 0 -4 88 9 101 3 4
49 19 101 34 52 15 102 31 110 36 19 11 33 11 28 1z"/>
</g>
</svg>
